<svg enable-background="new 0 0 1200 1200" height="1200" viewBox="0 0 1200 1200" width="1200" xmlns="http://www.w3.org/2000/svg"><path d="m605.096 480c-135.542-2.098-239.082-111.058-239.999-240 2.239-134.333 112.036-239.058 239.999-240 135.662 5.13 239.036 108.97 240.001 240-2.668 134.439-111.907 239.09-240.001 240zm194.043 49.788c170.592 1.991 257.094 151.63 257.881 301.269v368.943h-167.236l.001-324.254c-4.072-22.416-19.255-30.018-33.164-27.82-13.022 2.059-24.929 12.701-25.56 27.82v324.254h-464.67v-324.254c-3.557-21.334-17.128-29.537-30.331-28.709-14.138.889-27.853 12.135-28.393 28.709v324.254h-164.68v-368.943c-.98-159.475 99.901-300.087 259.137-301.269z"/></svg>