<svg enable-background="new 0 0 24 24" height="24" viewBox="0 0 24 24" width="24" xmlns="http://www.w3.org/2000/svg"><path d="m0 0h24v24h-24z" fill="none"/><path d="m11.5 3.5c0-1.1.9-2 2-2s2 .9 2 2-.9 2-2 2-2-.9-2-2zm7.03 7.5c-1.57.01-2.94-.9-3.6-2.21l-.79-1.67c-.17-.35-.44-.65-.8-.85-.62-.36-1.35-.34-1.94-.03v-.01l-4.39 2.5c-.62.35-1.01 1.01-1.01 1.73v2.54c0 .55.45 1 1 1 .55 0 1-.45 1-1v-2.54l1.5-.85c-.32 1.1-.5 2.24-.5 3.39v5.33l-2 2.67c-.33.44-.24 1.07.2 1.4s1.07.24 1.4-.2l2.04-2.72c.23-.31.37-.69.4-1.08l.18-2.94 1.78 2.54v4c0 .55.45 1 1 1 .55 0 1-.45 1-1v-4.87c0-.41-.13-.81-.36-1.15l-1.6-2.29s0 0 0-.01c-.11-1.16.07-2.32.46-3.4.81 1.23 2.05 2.14 3.51 2.52v.03.17c0 .28.22.5.5.5s.49-.22.49-.5v-.16-.34c0-.28.22-.5.5-.5s.5.22.5.5v10c0 .28.22.5.5.5s.5-.22.5-.5v-10c0-.82-.66-1.51-1.47-1.5z"/></svg>