<svg fill="none" height="24" viewBox="0 0 24 24" width="24" xmlns="http://www.w3.org/2000/svg"><g clip-rule="evenodd" fill="#000" fill-rule="evenodd"><path d="m20.7071 6.29291c.3905.39053.3905 1.02369 0 1.41422l-3 2.99997c-.3371.3371-.8652.3894-1.2618.125l-3-2.00003c-.4595-.30635-.5837-.92722-.2774-1.38675.3064-.45953.9273-.5837 1.3868-.27735l2.3179 1.54525 2.4203-2.42031c.3905-.39052 1.0237-.39052 1.4142 0zm-10 5.99999c.3905.3905.3905 1.0237 0 1.4142l-2.99999 3c-.18754.1876-.44189.2929-.70711.2929h-4c-.55228 0-1-.4477-1-1s.44772-1 1-1h3.58579l2.7071-2.7071c.39053-.3905 1.02371-.3905 1.41421 0z"/><path d="m8.16794 7.44539c.18547-.2782.4977-.4453.83205-.4453h5.00001c.3844 0 .7348.22035.9013.56682.1665.34646.1197.75771-.1204 1.05788l-3.3555 4.19431 3.1746 2.381c.2518.1888.4.4852.4.8v5c0 .5523-.4477 1-1 1s-1-.4477-1-1v-4.5l-3.60001-2.7c-.2165-.1624-.35795-.4056-.39203-.6741-.03409-.2684.0421-.5393.21117-.7506l2.70027-3.37531h-2.38422l-1.70314 2.55471c-.30635.4595-.92722.5837-1.38675.2773-.45952-.3063-.5837-.9272-.27735-1.3867z"/><path d="m18 4c0-1.10457-.8954-2-2-2s-2 .89543-2 2 .8954 2 2 2 2-.89543 2-2z"/></g></svg>